# xmcd
#
# Track frame offsets:
# 150
# 12782
# 26737
# 42817
# 54668
# 66453
# 83429
# 96377
# 110706
# 132511
# 151090
# 166825
# 184664
# 197024
# 215228
# 228813
# 243248
# 261196
# 274659
# 288388
#
# Disc length: 4073 seconds
#
#
# Revision: 0
# Processed by: cddbd v1.5.2PL0 Copyright (c) Steve Scherf et al.
# Submitted via: FreeRIP 2.945 
#
DISCID=190fe714
DTITLE=VARIOS - FORROZÃO LASCADO
DYEAR=1900
DGENRE=A Cappella
TTITLE0=Tome Tome
TTITLE1=Agarra Agarra
TTITLE2=COMO VOU DEIXAR VOCÊ
TTITLE3=BVERIMBAU METALIZADO
TTITLE4=TUM TARARA
TTITLE5=CORAÇÃO ABERTO
TTITLE6=AGITO DOS SOLTEIROS
TTITLE7=40 GRAUS
TTITLE8=RISCA FACA
TTITLE9=VOU BOTAR ELA NO PAU
TTITLE10=LAPADA NA RACHADA
TTITLE11=DO OUTRO LADO DA CIDADE
TTITLE12=REBOLA BOLA
TTITLE13=SÓ PRA VOCÊ
TTITLE14=DANÇA DA BUNDINHA
TTITLE15=ZUEIRA
TTITLE16=POR SUA CAUSA
TTITLE17=UM A UM
TTITLE18=EU NÃO VOU MAIS CHORAR
TTITLE19=BOTO NA  RACHADA
EXTD=
EXTT0=
EXTT1=
EXTT2=
EXTT3=
EXTT4=
EXTT5=
EXTT6=
EXTT7=
EXTT8=
EXTT9=
EXTT10=
EXTT11=
EXTT12=
EXTT13=
EXTT14=
EXTT15=
EXTT16=
EXTT17=
EXTT18=
EXTT19=
PLAYORDER=
